<svg width="23" height="23" viewBox="0 0 23 23" fill="none" xmlns="http://www.w3.org/2000/svg">
<path d="M11.4999 0C6.90686 0 3.17017 3.73669 3.17017 8.32968C3.17017 14.0297 10.6245 22.3977 10.9418 22.7512C11.2399 23.0832 11.7604 23.0826 12.058 22.7512C12.3753 22.3977 19.8296 14.0297 19.8296 8.32968C19.8295 3.73669 16.0929 0 11.4999 0ZM11.4999 12.5206C9.18902 12.5206 7.30904 10.6406 7.30904 8.32968C7.30904 6.01881 9.18907 4.13883 11.4999 4.13883C13.8107 4.13883 15.6907 6.01886 15.6907 8.32973C15.6907 10.6406 13.8107 12.5206 11.4999 12.5206Z" fill="#04E3FF"/>
</svg>
