<svg width="17" height="17" viewBox="0 0 17 17" fill="none" xmlns="http://www.w3.org/2000/svg">
<path d="M16.8501 3.37744L11.6943 8.49999L16.8501 13.6225C16.9433 13.4277 16.9998 13.2124 16.9998 12.9824V4.01756C16.9998 3.78757 16.9433 3.57224 16.8501 3.37744Z" fill="#04E3FF"/>
<path d="M15.5058 2.52344H1.49413C1.26413 2.52344 1.04881 2.57998 0.854004 2.67318L7.4436 9.22957C8.02624 9.81222 8.97373 9.81222 9.55638 9.22957L16.146 2.67318C15.9512 2.57998 15.7358 2.52344 15.5058 2.52344Z" fill="#04E3FF"/>
<path d="M0.149746 3.37744C0.0565449 3.57224 0 3.78757 0 4.01756V12.9824C0 13.2124 0.0565449 13.4278 0.149746 13.6225L5.30549 8.49999L0.149746 3.37744Z" fill="#04E3FF"/>
<path d="M10.9902 9.20435L10.2606 9.93392C9.28982 10.9047 7.71012 10.9047 6.73929 9.93392L6.00975 9.20435L0.854004 14.3269C1.04881 14.4201 1.26413 14.4766 1.49413 14.4766H15.5058C15.7358 14.4766 15.9512 14.4201 16.146 14.3269L10.9902 9.20435Z" fill="#04E3FF"/>
</svg>
