<svg width="178" height="44" viewBox="0 0 178 44" fill="none" xmlns="http://www.w3.org/2000/svg">
<path d="M73.4563 18.6553C73.9535 18.3685 74.5367 18.2247 75.2067 18.2247C75.8569 18.2247 76.4217 18.3685 76.9004 18.6553C77.3783 18.9425 77.7561 19.3494 78.0338 19.8754C78.1972 20.1859 78.3028 20.5275 78.3633 20.8942H72.0075C72.0701 20.5252 72.1716 20.1829 72.3225 19.8754C72.5809 19.3494 72.9584 18.9425 73.4563 18.6553ZM79.3253 15.2829C78.0717 14.6426 76.6802 14.322 75.1496 14.322C73.5036 14.322 72.0353 14.666 70.7438 15.355C69.4521 16.044 68.438 16.9958 67.7013 18.2108C66.9645 19.4258 66.5962 20.8181 66.5962 22.3866C66.5962 23.9175 66.974 25.2901 67.73 26.5051C68.4857 27.7208 69.5478 28.6774 70.9157 29.3755C72.2839 30.0744 73.896 30.4231 75.7523 30.4231C77.2251 30.4231 78.5074 30.208 79.5979 29.7774C80.6888 29.3468 81.597 28.7298 82.3246 27.9258L79.4836 24.9123C78.9471 25.3713 78.4113 25.7116 77.8759 25.9314C77.3401 26.1513 76.6802 26.2612 75.8954 26.2612C75.0724 26.2612 74.3645 26.1134 73.7719 25.8164C73.1782 25.5198 72.7243 25.0946 72.4084 24.5392C72.2731 24.3017 72.173 24.0406 72.0958 23.7646H83.3863C83.4053 23.5539 83.4249 23.3242 83.4438 23.0756C83.4628 22.827 83.4726 22.6071 83.4726 22.4153C83.4726 20.6933 83.0944 19.2344 82.3388 18.0383C81.5828 16.843 80.5782 15.9243 79.3253 15.2829Z" fill="white"/>
<path d="M91.2226 16.481V14.5797H85.999V30.1647H91.4523V23.0181C91.4523 21.6597 91.7967 20.6787 92.4853 20.0763C93.1744 19.4735 94.0734 19.1722 95.1832 19.1722C95.3744 19.1722 95.5658 19.1772 95.7576 19.1864C95.948 19.1962 96.1686 19.2199 96.4172 19.2584V14.322C94.9438 14.322 93.6953 14.6186 92.6721 15.2116C92.1011 15.5424 91.6238 15.972 91.2226 16.481Z" fill="white"/>
<path d="M106.463 14.6829C104.789 14.6829 103.29 15.0219 102.009 15.6896C100.732 16.3559 99.7164 17.2736 98.9898 18.4182C98.2653 19.5595 97.8979 20.8949 97.8979 22.3866C97.8979 23.86 98.2653 25.1907 98.9905 26.3415C99.7171 27.4952 100.732 28.4129 102.007 29.0688C103.289 29.7277 104.789 30.0619 106.463 30.0619C108.15 30.0619 109.624 29.6973 110.843 28.9781C111.95 28.3253 112.772 27.43 113.288 26.3144L109.685 24.476C109.323 25.1004 108.884 25.576 108.376 25.8929C107.785 26.2626 107.131 26.45 106.434 26.45C105.741 26.45 105.107 26.2894 104.548 25.9728C103.984 25.6534 103.528 25.1816 103.191 24.57C102.856 23.9652 102.687 23.2302 102.687 22.3866C102.687 21.5034 102.857 20.7576 103.194 20.1694C103.53 19.5801 103.986 19.1191 104.549 18.8005C105.108 18.4835 105.743 18.3229 106.434 18.3229C107.13 18.3229 107.784 18.5106 108.376 18.88C108.883 19.1972 109.321 19.6725 109.684 20.2959L113.288 18.4321C112.773 17.3159 111.951 16.4202 110.843 15.766C109.623 15.0476 108.149 14.6829 106.463 14.6829ZM106.463 30.7841C104.673 30.7841 103.062 30.4231 101.677 29.7111C100.285 28.995 99.1759 27.9908 98.3796 26.7264C97.5807 25.4586 97.1758 23.9987 97.1758 22.3866C97.1758 20.7556 97.581 19.2903 98.3803 18.0309C99.1755 16.7784 100.284 15.7751 101.675 15.0492C103.061 14.3271 104.671 13.9608 106.463 13.9608C108.28 13.9608 109.877 14.3589 111.21 15.144C112.556 15.9389 113.525 17.0558 114.088 18.4642L114.21 18.7687L109.375 21.268L109.211 20.9409C108.879 20.2776 108.47 19.7905 107.994 19.4925C107.511 19.1915 107.001 19.045 106.434 19.045C105.869 19.045 105.354 19.1742 104.905 19.4286C104.457 19.6826 104.092 20.0523 103.821 20.5276C103.547 21.0055 103.409 21.631 103.409 22.3866C103.409 23.1064 103.548 23.7241 103.823 24.2213C104.095 24.7145 104.458 25.092 104.905 25.3443C105.353 25.599 105.868 25.7279 106.434 25.7279C107.002 25.7279 107.512 25.5817 107.994 25.2807C108.47 24.983 108.88 24.4956 109.211 23.8326L109.374 23.5069L114.211 25.9748L114.088 26.2806C113.525 27.6894 112.556 28.806 111.21 29.6002C109.878 30.3856 108.281 30.7841 106.463 30.7841Z" fill="white"/>
<path d="M126.697 22.1281C126.697 22.9707 126.572 23.6638 126.324 24.2094C126.075 24.7543 125.726 25.1521 125.276 25.4001C124.826 25.6493 124.333 25.7731 123.798 25.7731C122.975 25.7731 122.339 25.5107 121.889 24.984C121.44 24.458 121.215 23.5924 121.215 22.3866V14.5797H115.762V23.2765C115.762 24.9224 116.044 26.2754 116.608 27.3376C117.173 28.3993 117.957 29.1793 118.962 29.6766C119.967 30.1738 121.1 30.4231 122.363 30.4231C123.549 30.4231 124.645 30.141 125.649 29.5765C126.15 29.295 126.595 28.9409 126.984 28.5143V30.1647H132.15V14.5797H126.697V22.1281Z" fill="white"/>
<path d="M150.548 18.6553C151.045 18.3685 151.628 18.2247 152.298 18.2247C152.948 18.2247 153.513 18.3685 153.992 18.6553C154.47 18.9425 154.847 19.3494 155.125 19.8754C155.289 20.1859 155.394 20.5275 155.455 20.8942H149.099C149.161 20.5252 149.263 20.1829 149.414 19.8754C149.672 19.3494 150.05 18.9425 150.548 18.6553ZM156.417 15.2829C155.163 14.6426 153.771 14.322 152.241 14.322C150.595 14.322 149.127 14.666 147.835 15.355C146.543 16.044 145.529 16.9958 144.793 18.2108C144.056 19.4258 143.688 20.8181 143.688 22.3866C143.688 23.9175 144.065 25.2901 144.821 26.5051C145.577 27.7208 146.639 28.6774 148.007 29.3755C149.375 30.0744 150.987 30.4231 152.844 30.4231C154.316 30.4231 155.599 30.208 156.689 29.7774C157.78 29.3468 158.688 28.7298 159.416 27.9258L156.575 24.9123C156.038 25.3713 155.503 25.7116 154.967 25.9314C154.431 26.1513 153.771 26.2612 152.987 26.2612C152.164 26.2612 151.456 26.1134 150.863 25.8164C150.27 25.5198 149.816 25.0946 149.5 24.5392C149.364 24.3017 149.264 24.0406 149.187 23.7646H160.478C160.497 23.5539 160.516 23.3242 160.535 23.0756C160.554 22.827 160.564 22.6071 160.564 22.4153C160.564 20.6933 160.186 19.2344 159.43 18.0383C158.674 16.843 157.669 15.9243 156.417 15.2829Z" fill="white"/>
<path d="M175.934 23.1475C175.599 22.583 175.163 22.1334 174.628 21.7986C174.092 21.464 173.499 21.2103 172.849 21.0375C172.198 20.8653 171.543 20.7365 170.883 20.6502C170.222 20.5643 169.624 20.478 169.088 20.3918C168.553 20.3059 168.113 20.1817 167.768 20.0187C167.424 19.8563 167.252 19.6222 167.252 19.3155C167.252 19.0097 167.448 18.756 167.84 18.5551C168.232 18.3541 168.888 18.2537 169.806 18.2537C170.476 18.2537 171.193 18.3308 171.959 18.4834C172.724 18.6369 173.489 18.9424 174.255 19.4017L175.89 15.6705C175.125 15.2307 174.183 14.8959 173.064 14.6662C171.944 14.4365 170.839 14.3218 169.749 14.3218C168.103 14.3218 166.721 14.5515 165.601 15.0102C164.482 15.4695 163.63 16.0865 163.047 16.8618C162.463 17.6367 162.172 18.5219 162.172 19.5164C162.172 20.3968 162.334 21.1237 162.66 21.6978C162.985 22.2721 163.42 22.7217 163.966 23.0467C164.511 23.3724 165.118 23.6258 165.788 23.8078C166.458 23.9894 167.113 24.123 167.754 24.2093C168.395 24.2952 168.992 24.3723 169.548 24.439C170.103 24.5063 170.543 24.6159 170.868 24.7688C171.193 24.9223 171.356 25.1418 171.356 25.429C171.356 25.7734 171.179 26.046 170.825 26.2469C170.471 26.4478 169.835 26.5486 168.916 26.5486C167.979 26.5486 167.022 26.415 166.046 26.1468C165.071 25.8792 164.21 25.5251 163.463 25.0847L161.856 28.8156C162.621 29.2749 163.63 29.6582 164.884 29.964C166.137 30.2694 167.424 30.423 168.744 30.423C170.428 30.423 171.844 30.1936 172.992 29.7343C174.14 29.2749 175.001 28.663 175.575 27.8976C176.149 27.1321 176.436 26.2807 176.436 25.3428C176.436 24.4437 176.268 23.7121 175.934 23.1475Z" fill="white"/>
<path d="M58.1299 10.0737V17.6222H50.4093V10.0737H44.7271V30.1646H50.4093V22.3289H58.1299V30.1646H63.8129V13.4431L58.1299 10.0737Z" fill="white"/>
<path d="M141.134 10.0737L135.681 13.2476V30.1646H141.134V14.7761V10.0737Z" fill="white"/>
<path d="M176.42 14.4056C177.033 14.4097 177.523 13.9243 177.525 13.3195C177.526 12.7184 177.048 12.2256 176.433 12.2273C175.832 12.2293 175.354 12.7005 175.347 13.3026C175.34 13.927 175.835 14.3941 176.42 14.4056ZM177.7 13.3171C177.699 14.0112 177.129 14.6011 176.394 14.5791C175.734 14.5595 175.162 14.0173 175.173 13.2924C175.183 12.6125 175.738 12.0385 176.464 12.0527C177.147 12.0659 177.697 12.6227 177.7 13.3171Z" fill="white"/>
<path d="M176.134 12.8051C176.134 12.8092 176.133 12.8115 176.133 12.8139C176.133 12.9394 176.134 13.0652 176.134 13.1907C176.134 13.1972 176.134 13.2036 176.133 13.2097C176.131 13.2289 176.131 13.2286 176.15 13.2286C176.266 13.2283 176.383 13.2279 176.499 13.2279C176.531 13.2279 176.562 13.2259 176.592 13.2141C176.683 13.1782 176.74 13.0781 176.722 12.9817C176.704 12.8795 176.616 12.8051 176.512 12.8051H176.163H176.134ZM175.956 12.6313H175.974C176.158 12.6313 176.342 12.6299 176.526 12.6316C176.619 12.6323 176.699 12.6668 176.768 12.728C176.82 12.7737 176.857 12.8291 176.879 12.8948C176.903 12.9644 176.907 13.0348 176.889 13.1058C176.862 13.2168 176.796 13.2996 176.698 13.3558C176.675 13.369 176.674 13.3683 176.693 13.3879C176.781 13.4789 176.838 13.5872 176.876 13.7066C176.892 13.7583 176.902 13.8114 176.909 13.8649C176.911 13.8821 176.91 13.8997 176.912 13.918H176.74C176.733 13.876 176.729 13.8337 176.719 13.7935C176.688 13.6761 176.637 13.5686 176.543 13.4864C176.487 13.436 176.421 13.4062 176.344 13.4055C176.289 13.4052 176.234 13.4052 176.179 13.4048C176.167 13.4048 176.156 13.4048 176.144 13.4031C176.134 13.4018 176.131 13.4052 176.131 13.4146C176.132 13.505 176.133 13.5953 176.134 13.6856C176.134 13.7566 176.133 13.828 176.134 13.899C176.134 13.9109 176.129 13.9149 176.118 13.9149C176.067 13.9149 176.016 13.9153 175.966 13.9156C175.955 13.9159 175.955 13.9088 175.955 13.9014C175.955 13.8706 175.956 13.8395 175.956 13.8087C175.956 13.4515 175.956 13.0943 175.956 12.7371V12.6313Z" fill="white"/>
<path d="M20.9866 16.5219H14.103V2.10256L17.5451 0L34.6534 10.0135V29.9404L28.5681 33.4447V13.6179L20.9866 9.41234V16.5219Z" fill="white"/>
<path d="M17.8147 40.2948L0 30.0726V10.2304L7.20202 6.04419V26.3828L14.0585 30.1497V22.9644H21.7592V37.8979L17.8147 40.2948ZM0.721169 29.6585L17.8036 39.4609L21.0375 37.4962V23.682H14.7797V31.3659L6.48038 26.8062V7.29481L0.721169 10.6423V29.6585Z" fill="white"/>
<path d="M130.089 37.5896H129.384C129.343 37.3869 129.27 37.2089 129.165 37.0555C129.063 36.9021 128.938 36.7733 128.79 36.6691C128.645 36.5631 128.483 36.4835 128.305 36.4305C128.127 36.3775 127.941 36.351 127.748 36.351C127.396 36.351 127.076 36.44 126.79 36.618C126.506 36.796 126.28 37.0583 126.111 37.4049C125.945 37.7515 125.861 38.1767 125.861 38.6805C125.861 39.1843 125.945 39.6095 126.111 39.9561C126.28 40.3027 126.506 40.565 126.79 40.743C127.076 40.921 127.396 41.0101 127.748 41.0101C127.941 41.0101 128.127 40.9835 128.305 40.9305C128.483 40.8775 128.645 40.7989 128.79 40.6947C128.938 40.5887 129.063 40.4589 129.165 40.3055C129.27 40.1502 129.343 39.9722 129.384 39.7714H130.089C130.036 40.0688 129.939 40.3349 129.799 40.5697C129.659 40.8046 129.485 41.0044 129.276 41.1691C129.068 41.332 128.834 41.4561 128.575 41.5413C128.317 41.6265 128.041 41.6691 127.748 41.6691C127.252 41.6691 126.81 41.5479 126.424 41.3055C126.038 41.0631 125.734 40.7184 125.512 40.2714C125.29 39.8244 125.18 39.2941 125.18 38.6805C125.18 38.0669 125.29 37.5366 125.512 37.0896C125.734 36.6426 126.038 36.2979 126.424 36.0555C126.81 35.8131 127.252 35.6919 127.748 35.6919C128.041 35.6919 128.317 35.7345 128.575 35.8197C128.834 35.9049 129.068 36.0299 129.276 36.1947C129.485 36.3576 129.659 36.5565 129.799 36.7913C129.939 37.0243 130.036 37.2904 130.089 37.5896ZM136.136 38.6805C136.136 39.2941 136.026 39.8244 135.804 40.2714C135.582 40.7184 135.278 41.0631 134.892 41.3055C134.506 41.5479 134.064 41.6691 133.568 41.6691C133.072 41.6691 132.631 41.5479 132.244 41.3055C131.858 41.0631 131.554 40.7184 131.332 40.2714C131.111 39.8244 131 39.2941 131 38.6805C131 38.0669 131.111 37.5366 131.332 37.0896C131.554 36.6426 131.858 36.2979 132.244 36.0555C132.631 35.8131 133.072 35.6919 133.568 35.6919C134.064 35.6919 134.506 35.8131 134.892 36.0555C135.278 36.2979 135.582 36.6426 135.804 37.0896C136.026 37.5366 136.136 38.0669 136.136 38.6805ZM135.454 38.6805C135.454 38.1767 135.37 37.7515 135.202 37.4049C135.035 37.0583 134.809 36.796 134.523 36.618C134.239 36.44 133.92 36.351 133.568 36.351C133.216 36.351 132.897 36.44 132.611 36.618C132.327 36.796 132.1 37.0583 131.932 37.4049C131.765 37.7515 131.682 38.1767 131.682 38.6805C131.682 39.1843 131.765 39.6095 131.932 39.9561C132.1 40.3027 132.327 40.565 132.611 40.743C132.897 40.921 133.216 41.0101 133.568 41.0101C133.92 41.0101 134.239 40.921 134.523 40.743C134.809 40.565 135.035 40.3027 135.202 39.9561C135.37 39.6095 135.454 39.1843 135.454 38.6805ZM141.935 35.7714V41.5896H141.253L138.082 37.0214H138.026V41.5896H137.321V35.7714H138.003L141.185 40.351H141.241V35.7714H141.935ZM146.526 37.226C146.492 36.9381 146.354 36.7146 146.111 36.5555C145.869 36.3964 145.572 36.3169 145.219 36.3169C144.962 36.3169 144.736 36.3585 144.543 36.4419C144.352 36.5252 144.202 36.6398 144.094 36.7856C143.988 36.9315 143.935 37.0972 143.935 37.2828C143.935 37.4381 143.972 37.5716 144.046 37.6833C144.122 37.7932 144.218 37.8851 144.336 37.9589C144.453 38.0309 144.576 38.0905 144.705 38.1379C144.834 38.1833 144.952 38.2203 145.06 38.2487L145.651 38.4078C145.803 38.4476 145.971 38.5025 146.157 38.5726C146.344 38.6426 146.523 38.7383 146.694 38.8595C146.866 38.9788 147.008 39.1322 147.12 39.3197C147.232 39.5072 147.288 39.7373 147.288 40.0101C147.288 40.3244 147.205 40.6085 147.04 40.8623C146.878 41.1161 146.639 41.3178 146.325 41.4674C146.012 41.6171 145.632 41.6919 145.185 41.6919C144.769 41.6919 144.408 41.6246 144.103 41.4902C143.8 41.3557 143.561 41.1682 143.387 40.9277C143.215 40.6871 143.117 40.4078 143.094 40.0896H143.822C143.841 40.3093 143.914 40.4911 144.043 40.6351C144.174 40.7771 144.339 40.8832 144.538 40.9532C144.738 41.0214 144.954 41.0555 145.185 41.0555C145.454 41.0555 145.696 41.0119 145.91 40.9248C146.124 40.8358 146.293 40.7127 146.418 40.5555C146.543 40.3964 146.606 40.2108 146.606 39.9987C146.606 39.8055 146.552 39.6483 146.444 39.5271C146.336 39.4059 146.194 39.3074 146.018 39.2316C145.842 39.1559 145.651 39.0896 145.447 39.0328L144.731 38.8282C144.276 38.6976 143.916 38.511 143.651 38.2686C143.386 38.0262 143.253 37.7089 143.253 37.3169C143.253 36.9911 143.342 36.707 143.518 36.4646C143.696 36.2203 143.934 36.0309 144.234 35.8964C144.535 35.7601 144.871 35.6919 145.242 35.6919C145.617 35.6919 145.95 35.7591 146.242 35.8936C146.534 36.0262 146.765 36.208 146.935 36.439C147.108 36.6701 147.199 36.9324 147.208 37.226H146.526ZM152.264 35.7714H152.969V39.6237C152.969 40.0214 152.875 40.3765 152.687 40.689C152.502 40.9996 152.24 41.2449 151.901 41.4248C151.562 41.6029 151.164 41.6919 150.707 41.6919C150.251 41.6919 149.853 41.6029 149.514 41.4248C149.175 41.2449 148.912 40.9996 148.724 40.689C148.539 40.3765 148.446 40.0214 148.446 39.6237V35.7714H149.151V39.5669C149.151 39.851 149.213 40.1038 149.338 40.3254C149.463 40.5451 149.641 40.7184 149.872 40.8453C150.105 40.9703 150.383 41.0328 150.707 41.0328C151.031 41.0328 151.31 40.9703 151.543 40.8453C151.776 40.7184 151.954 40.5451 152.077 40.3254C152.202 40.1038 152.264 39.851 152.264 39.5669V35.7714ZM154.376 41.5896V35.7714H155.08V40.9646H157.785V41.5896H154.376ZM157.784 36.3964V35.7714H162.148V36.3964H160.318V41.5896H159.614V36.3964H157.784ZM163.94 35.7714V41.5896H163.235V35.7714H163.94ZM169.966 35.7714V41.5896H169.284L166.114 37.0214H166.057V41.5896H165.352V35.7714H166.034L169.216 40.351H169.273V35.7714H169.966ZM175.353 37.5896C175.29 37.3983 175.208 37.2269 175.106 37.0754C175.005 36.922 174.885 36.7913 174.745 36.6833C174.607 36.5754 174.45 36.493 174.273 36.4362C174.097 36.3794 173.904 36.351 173.694 36.351C173.349 36.351 173.036 36.44 172.753 36.618C172.471 36.796 172.247 37.0583 172.08 37.4049C171.914 37.7515 171.83 38.1767 171.83 38.6805C171.83 39.1843 171.914 39.6095 172.083 39.9561C172.252 40.3027 172.48 40.565 172.768 40.743C173.056 40.921 173.379 41.0101 173.739 41.0101C174.073 41.0101 174.366 40.939 174.62 40.797C174.876 40.653 175.075 40.4504 175.217 40.189C175.361 39.9258 175.432 39.6161 175.432 39.2601L175.648 39.3055H173.898V38.6805H176.114V39.3055C176.114 39.7847 176.012 40.2013 175.807 40.5555C175.605 40.9097 175.325 41.1843 174.967 41.3794C174.611 41.5726 174.201 41.6691 173.739 41.6691C173.224 41.6691 172.771 41.5479 172.381 41.3055C171.993 41.0631 171.69 40.7184 171.472 40.2714C171.256 39.8244 171.148 39.2941 171.148 38.6805C171.148 38.2203 171.21 37.8065 171.333 37.439C171.458 37.0697 171.634 36.7553 171.861 36.4958C172.089 36.2364 172.358 36.0375 172.668 35.8993C172.979 35.761 173.321 35.6919 173.694 35.6919C174.001 35.6919 174.287 35.7383 174.552 35.8311C174.819 35.922 175.057 36.0517 175.265 36.2203C175.475 36.3869 175.65 36.5868 175.79 36.8197C175.931 37.0508 176.027 37.3074 176.08 37.5896H175.353Z" fill="white"/>
</svg>
