<svg width="18" height="18" viewBox="0 0 18 18" fill="none" xmlns="http://www.w3.org/2000/svg">
<g clip-path="url(#clip0_13_688)">
<path d="M17.7801 16.72L12.6614 11.6013C13.6529 10.3765 14.2498 8.82028 14.2498 7.12531C14.2498 3.19685 11.0534 0.000366211 7.12491 0.000366211C3.19645 0.000366211 0 3.19681 0 7.12527C0 11.0537 3.19648 14.2502 7.12494 14.2502C8.81991 14.2502 10.3762 13.6532 11.6009 12.6617L16.7196 17.7804C16.8658 17.9267 17.0578 18.0002 17.2498 18.0002C17.4419 18.0002 17.6339 17.9267 17.7801 17.7804C18.0733 17.4872 18.0733 17.0132 17.7801 16.72ZM7.12494 12.7502C4.02296 12.7502 1.5 10.2273 1.5 7.12527C1.5 4.02329 4.02296 1.50033 7.12494 1.50033C10.2269 1.50033 12.7499 4.02329 12.7499 7.12527C12.7499 10.2273 10.2269 12.7502 7.12494 12.7502Z" fill="#353C41"/>
</g>
<defs>
<clipPath id="clip0_13_688">
<rect width="18" height="18" fill="white"/>
</clipPath>
</defs>
</svg>
