<svg width="24" height="24" viewBox="0 0 24 24" fill="none" xmlns="http://www.w3.org/2000/svg">
<path fill-rule="evenodd" clip-rule="evenodd" d="M18.617 9.41998C20.971 9.87598 22.75 11.95 22.75 14.436C22.75 17.256 20.461 19.545 17.641 19.545C14.821 19.545 12.532 17.256 12.532 14.436C12.532 10.678 13.798 8.34398 15.284 6.88498C17.559 4.65098 20.408 4.45698 20.408 4.45698C20.698 4.43598 20.973 4.58498 21.115 4.83798C21.258 5.08998 21.241 5.40298 21.073 5.63898C21.073 5.63898 19.719 7.54498 18.875 8.95498C18.787 9.10298 18.698 9.26598 18.617 9.41998Z" fill="#04E3FF"/>
<path fill-rule="evenodd" clip-rule="evenodd" d="M7.33477 9.41998C9.68877 9.87598 11.4678 11.95 11.4678 14.436C11.4678 17.256 9.17877 19.545 6.35877 19.545C3.53877 19.545 1.24977 17.256 1.24977 14.436C1.24977 10.678 2.51577 8.34398 4.00177 6.88498C6.27677 4.65098 9.12577 4.45698 9.12577 4.45698C9.41577 4.43598 9.69077 4.58498 9.83277 4.83798C9.97477 5.08998 9.95877 5.40298 9.79077 5.63898C9.79077 5.63898 8.43677 7.54498 7.59277 8.95498C7.50477 9.10298 7.41577 9.26598 7.33477 9.41998Z" fill="#04E3FF"/>
</svg>
