<svg width="38" height="38" viewBox="0 0 38 38" fill="none" xmlns="http://www.w3.org/2000/svg">
<g clip-path="url(#clip0_1_909)">
<path d="M19 38C29.4934 38 38 29.4934 38 19C38 8.50659 29.4934 0 19 0C8.50659 0 0 8.50659 0 19C0 29.4934 8.50659 38 19 38Z" fill="#04E3FF"/>
<path d="M31.3077 11.3676C30.3819 11.7719 29.4027 12.0405 28.4002 12.1651C29.457 11.5384 30.2469 10.5456 30.6202 9.3751C29.6311 9.96219 28.5488 10.3757 27.4202 10.5976C26.7286 9.85798 25.8304 9.34358 24.8425 9.12132C23.8546 8.89906 22.8227 8.97923 21.881 9.35138C20.9393 9.72354 20.1313 10.3705 19.5623 11.208C18.9932 12.0456 18.6893 13.035 18.6902 14.0476C18.6866 14.4341 18.7261 14.8198 18.8077 15.1976C16.8001 15.099 14.8359 14.578 13.0434 13.6686C11.2509 12.7592 9.67045 11.4819 8.4052 9.9201C7.75484 11.0311 7.55336 12.3486 7.84192 13.6032C8.13048 14.8578 8.8873 15.9549 9.9577 16.6701C9.15875 16.6486 8.37673 16.4351 7.6777 16.0476V16.1026C7.67994 17.2672 8.08304 18.3955 8.81922 19.2978C9.55541 20.2002 10.5798 20.8216 11.7202 21.0576C11.2886 21.171 10.8439 21.2265 10.3977 21.2226C10.0764 21.2285 9.75541 21.2 9.4402 21.1376C9.76691 22.1392 10.3959 23.0149 11.2407 23.6443C12.0855 24.2738 13.1045 24.626 14.1577 24.6526C12.373 26.0476 10.1729 26.8053 7.9077 26.8051C7.50409 26.8085 7.1007 26.7851 6.7002 26.7351C9.00987 28.2242 11.7021 29.0111 14.4502 29.0001C23.7377 29.0001 28.8152 21.3076 28.8152 14.6401C28.8152 14.4176 28.8152 14.2026 28.7977 13.9876C29.7865 13.2739 30.6371 12.3861 31.3077 11.3676Z" fill="white"/>
</g>
<defs>
<clipPath id="clip0_1_909">
<rect width="38" height="38" fill="white"/>
</clipPath>
</defs>
</svg>
