<svg width="20" height="20" viewBox="0 0 20 20" fill="none" xmlns="http://www.w3.org/2000/svg">
<path d="M15.8332 4.16675H14.9998V2.50008C14.9998 2.27907 14.912 2.06711 14.7558 1.91083C14.5995 1.75455 14.3875 1.66675 14.1665 1.66675C13.9455 1.66675 13.7335 1.75455 13.5772 1.91083C13.421 2.06711 13.3332 2.27907 13.3332 2.50008V4.16675H6.6665V2.50008C6.6665 2.27907 6.57871 2.06711 6.42243 1.91083C6.26615 1.75455 6.05418 1.66675 5.83317 1.66675C5.61216 1.66675 5.4002 1.75455 5.24392 1.91083C5.08764 2.06711 4.99984 2.27907 4.99984 2.50008V4.16675H4.1665C3.50346 4.16675 2.86758 4.43014 2.39874 4.89898C1.9299 5.36782 1.6665 6.00371 1.6665 6.66675V7.50008H18.3332V6.66675C18.3332 6.00371 18.0698 5.36782 17.6009 4.89898C17.1321 4.43014 16.4962 4.16675 15.8332 4.16675Z" fill="#04E3FF"/>
<path d="M1.6665 15.8334C1.6665 16.4965 1.9299 17.1323 2.39874 17.6012C2.86758 18.07 3.50346 18.3334 4.1665 18.3334H15.8332C16.4962 18.3334 17.1321 18.07 17.6009 17.6012C18.0698 17.1323 18.3332 16.4965 18.3332 15.8334V9.16675H1.6665V15.8334Z" fill="#04E3FF"/>
</svg>
