<svg width="23" height="23" viewBox="0 0 23 23" fill="none" xmlns="http://www.w3.org/2000/svg">
<path d="M22.63 12.3374C22.6656 13.1865 22.3628 14.0151 21.7882 14.6413C21.2136 15.2676 20.4141 15.6403 19.565 15.6778C19.5154 15.6801 19.4658 15.6812 19.4163 15.6812C19.1907 15.6811 18.9658 15.6566 18.7454 15.6084C18.0915 16.618 17.2341 17.48 16.228 18.1393C15.2219 18.7986 14.0893 19.2406 12.9026 19.4371C12.7622 19.8494 12.4822 20.1998 12.1109 20.4276C11.7396 20.6554 11.3004 20.7463 10.8692 20.6846C10.438 20.6229 10.0419 20.4125 9.74939 20.0898C9.45686 19.7671 9.28629 19.3522 9.26716 18.9171C9.24803 18.4819 9.38154 18.0537 9.64462 17.7066C9.9077 17.3594 10.2838 17.115 10.7079 17.0158C11.1321 16.9165 11.5775 16.9685 11.9674 17.1628C12.3572 17.3572 12.6669 17.6816 12.8429 18.08C14.5136 17.7711 16.0229 16.8856 17.1078 15.578C18.1927 14.2704 18.7843 12.6235 18.7796 10.9245C18.7796 6.91049 15.514 3.6449 11.5 3.6449C7.48597 3.6449 4.22038 6.91049 4.22038 10.9245C4.22016 12.1657 4.53737 13.3863 5.14186 14.4704C5.16235 14.5061 5.17772 14.5446 5.18754 14.5846C5.24593 14.7469 5.23969 14.9254 5.17011 15.0833C5.10053 15.2411 4.97294 15.3661 4.81375 15.4324C4.42394 15.5965 4.00527 15.681 3.58235 15.6809C3.53258 15.6809 3.4827 15.6798 3.43272 15.6774C2.584 15.6395 1.78496 15.2666 1.21081 14.6404C0.636658 14.0142 0.334251 13.1859 0.369897 12.3371C0.384227 11.9986 0.376231 11.6966 0.368415 11.4045C0.361137 11.1296 0.353546 10.8452 0.366034 10.5485C0.403304 9.71971 0.759816 8.93749 1.3609 8.36567C1.96198 7.79386 2.761 7.4768 3.59062 7.48091C4.92282 4.43287 7.96641 2.29724 11.5 2.29724C15.0335 2.29724 18.0772 4.43287 19.4094 7.48096C20.2391 7.47623 21.0383 7.79301 21.6395 8.36484C22.2407 8.93667 22.5971 9.71911 22.6339 10.548C22.6464 10.8452 22.6388 11.1295 22.6315 11.4044C22.6237 11.6965 22.6157 11.9987 22.63 12.3374ZM17.1514 10.9245C17.151 11.7903 16.9519 12.6444 16.5692 13.4211C16.1865 14.1977 15.6306 14.8761 14.9443 15.4039C14.258 15.9317 13.4596 16.2949 12.6107 16.4653C11.7619 16.6357 10.8852 16.609 10.0484 16.387L7.76089 17.708C7.64548 17.7747 7.51288 17.8056 7.37989 17.7969C7.24689 17.7882 7.11946 17.7402 7.01372 17.6591C6.90798 17.5779 6.82868 17.4673 6.78584 17.3411C6.743 17.2149 6.73855 17.0788 6.77306 16.95L7.35767 14.7692C6.38952 13.7227 5.85083 12.3501 5.84879 10.9245C5.84879 7.80745 8.38378 5.27179 11.5 5.27179C14.6162 5.27179 17.1514 7.80745 17.1514 10.9245ZM9.92882 10.9245C9.92882 10.7458 9.85783 10.5744 9.73146 10.448C9.6051 10.3217 9.43371 10.2507 9.25499 10.2507H9.25387C9.12066 10.2509 8.9905 10.2906 8.87986 10.3648C8.76921 10.439 8.68304 10.5443 8.63223 10.6675C8.58143 10.7906 8.56826 10.9261 8.5944 11.0567C8.62054 11.1873 8.68482 11.3073 8.77911 11.4014C8.87339 11.4955 8.99346 11.5596 9.12413 11.5855C9.25481 11.6114 9.39023 11.5979 9.51328 11.5469C9.63634 11.4959 9.7415 11.4095 9.81548 11.2987C9.88947 11.1879 9.92896 11.0577 9.92896 10.9245H9.92882ZM12.1739 10.9245C12.1739 10.9024 12.1727 10.8804 12.1703 10.8585C12.1682 10.8364 12.1649 10.8145 12.1605 10.7929C12.1565 10.7713 12.1511 10.75 12.1443 10.7291C12.138 10.708 12.1304 10.6873 12.1223 10.6666C12.1142 10.646 12.1043 10.6267 12.094 10.6073C12.0837 10.5879 12.0725 10.569 12.0603 10.5507C12.048 10.5323 12.0348 10.5144 12.0207 10.4973C12.0069 10.4801 11.9921 10.4638 11.9763 10.4483C11.961 10.4326 11.9444 10.4178 11.9274 10.4034C11.9102 10.3899 11.8923 10.3764 11.8739 10.3643C11.8556 10.3521 11.8367 10.3409 11.8173 10.3306C11.7979 10.3203 11.7778 10.3109 11.7575 10.3023C11.7373 10.2938 11.7166 10.2865 11.6956 10.2803C11.6535 10.2668 11.6101 10.2581 11.5662 10.2543C11.5002 10.2479 11.4336 10.2511 11.3685 10.2637C11.3469 10.2681 11.3254 10.2737 11.3043 10.2803C11.2833 10.2865 11.2626 10.2938 11.2423 10.3023C11.2221 10.3109 11.2019 10.3203 11.1826 10.3306C11.1633 10.341 11.1444 10.3522 11.1259 10.3643C11.1075 10.3764 11.0896 10.3899 11.073 10.4034C11.0555 10.4178 11.0393 10.4326 11.0236 10.4483C11.0078 10.4638 10.9929 10.4801 10.9791 10.4973C10.9651 10.5144 10.9521 10.5323 10.94 10.5507C10.9277 10.569 10.9163 10.5879 10.9059 10.6073C10.8955 10.6266 10.8862 10.6464 10.878 10.6666C10.8694 10.6871 10.862 10.7079 10.8555 10.7291C10.8493 10.7497 10.8439 10.7713 10.8394 10.7929C10.835 10.8145 10.8316 10.8364 10.8295 10.8585C10.8273 10.8805 10.8263 10.9025 10.8263 10.9245C10.8263 10.9465 10.8273 10.969 10.8295 10.991C10.8317 11.0128 10.835 11.0346 10.8394 11.0561C10.8439 11.0777 10.8493 11.0992 10.8555 11.1203C10.862 11.1414 10.8695 11.1621 10.878 11.1823C10.8862 11.2027 10.8955 11.2227 10.9059 11.2421C10.9162 11.2614 10.9279 11.2803 10.94 11.2987C10.9521 11.317 10.9651 11.3347 10.9791 11.3517C10.9931 11.3689 11.0079 11.3854 11.0236 11.4011C11.0393 11.4164 11.0555 11.4317 11.073 11.4456C11.0899 11.4596 11.1076 11.4727 11.1259 11.4847C11.1444 11.4968 11.1632 11.5085 11.1826 11.5188C11.2216 11.5391 11.2623 11.556 11.3043 11.5691C11.3254 11.5754 11.347 11.5808 11.3685 11.5853C11.4118 11.5942 11.4559 11.5985 11.5001 11.5983C11.6786 11.5978 11.8498 11.527 11.9763 11.4011C12.0074 11.3696 12.0355 11.3353 12.0603 11.2987C12.0724 11.2803 12.0837 11.2614 12.094 11.2421C12.1043 11.2228 12.1138 11.2026 12.1223 11.1823C12.1308 11.1621 12.138 11.141 12.1443 11.1203C12.151 11.0993 12.1564 11.0778 12.1605 11.0561C12.1649 11.0346 12.1682 11.0128 12.1703 10.991C12.1726 10.9689 12.1738 10.9466 12.1738 10.9244L12.1739 10.9245ZM14.42 10.9245C14.42 10.7458 14.349 10.5744 14.2227 10.448C14.0963 10.3217 13.9249 10.2507 13.7462 10.2507H13.7449C13.6117 10.2509 13.4815 10.2907 13.3709 10.3649C13.2603 10.439 13.1741 10.5444 13.1233 10.6675C13.0725 10.7907 13.0593 10.9261 13.0855 11.0567C13.1116 11.1874 13.1759 11.3073 13.2702 11.4014C13.3645 11.4955 13.4845 11.5596 13.6152 11.5855C13.7459 11.6114 13.8813 11.5979 14.0044 11.5469C14.1274 11.4959 14.2326 11.4095 14.3066 11.2987C14.3805 11.1879 14.42 11.0577 14.42 10.9245Z" fill="#04E3FF"/>
</svg>
